<svg xmlns="http://www.w3.org/2000/svg" xmlns:xlink="http://www.w3.org/1999/xlink" width="1920.811" height="940.56" viewBox="0 0 1920.811 940.56">
  <defs>
    <style>
      .cls-1 {
        fill: url(#linear-gradient);
      }

      .cls-2 {
        fill: url(#linear-gradient-2);
      }

      .cls-3 {
        fill: url(#linear-gradient-3);
      }

      .cls-4 {
        fill: url(#linear-gradient-4);
      }
    </style>
    <linearGradient id="linear-gradient" x1="1" y1="0.439" x2="0" y2="0.437" gradientUnits="objectBoundingBox">
      <stop offset="0" stop-color="#1f3459"/>
      <stop offset="1" stop-color="#4fa9a9" stop-opacity="0.812"/>
    </linearGradient>
    <linearGradient id="linear-gradient-2" x1="0" y1="0.561" x2="1" y2="0.563" xlink:href="#linear-gradient"/>
    <linearGradient id="linear-gradient-3" y1="0.561" x2="2.03" y2="0.557" gradientUnits="objectBoundingBox">
      <stop offset="0" stop-color="#1f3459"/>
      <stop offset="0.99" stop-color="#4fa8a8" stop-opacity="0.812"/>
      <stop offset="1" stop-color="#4fa9a9" stop-opacity="0.812"/>
    </linearGradient>
    <linearGradient id="linear-gradient-4" x1="-0.366" y1="1.335" x2="1.065" y2="0.205" gradientUnits="objectBoundingBox">
      <stop offset="0" stop-color="#52a6a7"/>
      <stop offset="1" stop-color="#20375b"/>
    </linearGradient>
  </defs>
  <g id="Group_2" data-name="Group 2" transform="translate(0 0)">
    <path id="Rectangle_2" data-name="Rectangle 2" class="cls-1" d="M0,0H1421.233A498.767,498.767,0,0,1,1920,498.767v0A441.793,441.793,0,0,1,1478.207,940.56H0a0,0,0,0,1,0,0V0A0,0,0,0,1,0,0Z" transform="translate(0 0)"/>
    <path id="Subtraction_2" data-name="Subtraction 2" class="cls-2" d="M1920,940.56H453a460.277,460.277,0,0,1-46.316-2.339,454.186,454.186,0,0,1-44.979-6.865c-14.593-2.986-29.2-6.742-43.413-11.163-14.055-4.372-28.058-9.5-41.62-15.233A454.329,454.329,0,0,1,35.6,663.889c-5.736-13.562-10.861-27.565-15.233-41.62-4.42-14.213-8.176-28.82-11.162-43.413a454.106,454.106,0,0,1-6.865-44.979A460.269,460.269,0,0,1,0,487.561V442a449.083,449.083,0,0,1,2.282-45.192,442.937,442.937,0,0,1,6.7-43.886c2.915-14.243,6.579-28.495,10.891-42.359,4.265-13.714,9.266-27.377,14.863-40.609A443.294,443.294,0,0,1,269.954,34.734c13.234-5.6,26.9-10.6,40.609-14.863,13.868-4.313,28.12-7.978,42.359-10.891a442.99,442.99,0,0,1,43.887-6.7A449.082,449.082,0,0,1,442,0H1920V940.56ZM474,221c-131.785,0-239,107.215-239,239S342.215,699,474,699,713,591.785,713,460,605.785,221,474,221Z" transform="translate(1920 940.56) rotate(180)"/>
    <path id="Intersection_1" data-name="Intersection 1" class="cls-3" d="M440.506,940.56C201.586,925.536,10.976,732.4,0,492.406V448.595C11.1,205.881,205.88,11.1,448.594,0H492.4C742.372,11.432,941.5,217.709,941.5,470.5c0,250.044-194.866,454.581-441.007,470.06Z" transform="translate(1920 940.56) rotate(180)"/>
    <path id="Subtraction_10" data-name="Subtraction 10" class="cls-4" d="M355,710a360.688,360.688,0,0,1-36.3-1.833A354.47,354.47,0,0,1,1.833,391.3a360.321,360.321,0,0,1,0-72.593A354.469,354.469,0,0,1,318.7,1.833,360.69,360.69,0,0,1,355,0c11.868,0,23.84.592,35.582,1.761,11.575,1.152,23.208,2.892,34.578,5.171A352.974,352.974,0,0,1,550.078,58.358,356.216,356.216,0,0,1,678.79,209.241a353.325,353.325,0,0,1,31.021,134.072c-6.253-127.332-111.1-227.076-238.708-227.076-131.785,0-239,107.215-239,239s107.215,239,239,239c127.086,0,231.918-99.321,238.659-226.113A354.785,354.785,0,0,1,424.99,703.1c-11.343,2.268-22.95,4-34.5,5.145C378.781,709.411,366.839,710,355,710Z" transform="translate(1211 134.56)"/>
  </g>
</svg>
