<svg xmlns="http://www.w3.org/2000/svg" xmlns:xlink="http://www.w3.org/1999/xlink" width="1920.812" height="940.561" viewBox="0 0 1920.812 940.561">
  <defs>
    <style>
      .cls-1 {
        fill: url(#linear-gradient);
      }

      .cls-2 {
        fill: url(#linear-gradient-3);
      }

      .cls-3 {
        fill: url(#linear-gradient-4);
      }
    </style>
    <linearGradient id="linear-gradient" y1="0.439" x2="1" y2="0.437" gradientUnits="objectBoundingBox">
      <stop offset="0" stop-color="#1f3459"/>
      <stop offset="1" stop-color="#4fa9a9" stop-opacity="0.812"/>
    </linearGradient>
    <linearGradient id="linear-gradient-3" y1="0.439" x2="2.03" y2="0.443" gradientUnits="objectBoundingBox">
      <stop offset="0" stop-color="#1f3459"/>
      <stop offset="0.99" stop-color="#4fa8a8" stop-opacity="0.812"/>
      <stop offset="1" stop-color="#4fa9a9" stop-opacity="0.812"/>
    </linearGradient>
    <linearGradient id="linear-gradient-4" x1="-0.366" y1="-0.335" x2="1.065" y2="0.795" gradientUnits="objectBoundingBox">
      <stop offset="0" stop-color="#52a6a7"/>
      <stop offset="1" stop-color="#20375b"/>
    </linearGradient>
  </defs>
  <g id="background3" transform="translate(0 0)">
    <path id="Rectangle_2" data-name="Rectangle 2" class="cls-1" d="M498.767,0H1920a0,0,0,0,1,0,0V940.56a0,0,0,0,1,0,0H441.793A441.793,441.793,0,0,1,0,498.767v0A498.767,498.767,0,0,1,498.767,0Z" transform="translate(0.811)"/>
    <path id="Subtraction_2" data-name="Subtraction 2" class="cls-1" d="M1920,940.561H442a449.065,449.065,0,0,1-45.192-2.282,443.035,443.035,0,0,1-43.887-6.7c-14.238-2.914-28.49-6.578-42.359-10.891-13.712-4.265-27.375-9.266-40.609-14.863A443.293,443.293,0,0,1,34.734,670.607c-5.6-13.234-10.6-26.9-14.863-40.609-4.313-13.866-7.977-28.118-10.891-42.359a443.025,443.025,0,0,1-6.7-43.886A449.082,449.082,0,0,1,0,498.56V453a460.269,460.269,0,0,1,2.339-46.316A454.174,454.174,0,0,1,9.2,361.7c2.986-14.594,6.742-29.2,11.163-43.413,4.372-14.055,9.5-28.058,15.233-41.62A454.324,454.324,0,0,1,276.672,35.6c13.561-5.736,27.564-10.861,41.62-15.233C332.5,15.945,347.111,12.189,361.7,9.2a454.174,454.174,0,0,1,44.979-6.865A460.277,460.277,0,0,1,453,0H1920V940.56Zm-1446-699c-131.785,0-239,107.215-239,239s107.215,239,239,239,239-107.215,239-239S605.785,241.56,474,241.56Z" transform="translate(0.812 0)"/>
    <path id="Intersection_1" data-name="Intersection 1" class="cls-2" d="M440.506,0C201.586,15.025,10.976,208.157,0,448.155v43.811C11.1,734.679,205.88,929.46,448.594,940.56H492.4c249.967-11.432,449.1-217.709,449.1-470.5C941.5,220.016,746.634,15.479,500.492,0Z" transform="translate(0.812 0)"/>
    <path id="Subtraction_10" data-name="Subtraction 10" class="cls-3" d="M355,0a360.688,360.688,0,0,0-36.3,1.833A354.47,354.47,0,0,0,1.833,318.7a360.321,360.321,0,0,0,0,72.593A354.47,354.47,0,0,0,318.7,708.167,360.688,360.688,0,0,0,355,710c11.868,0,23.84-.592,35.582-1.761,11.575-1.152,23.208-2.892,34.578-5.171a352.972,352.972,0,0,0,124.918-51.426A356.215,356.215,0,0,0,678.79,500.759a353.325,353.325,0,0,0,31.021-134.072C703.559,494.02,598.707,593.763,471.1,593.763c-131.785,0-239-107.215-239-239s107.215-239,239-239c127.086,0,231.918,99.321,238.659,226.113A354.785,354.785,0,0,0,424.99,6.9c-11.343-2.268-22.95-4-34.5-5.145C378.781.59,366.839,0,355,0Z" transform="translate(709.811 844.56) rotate(180)"/>
  </g>
</svg>
