<svg xmlns="http://www.w3.org/2000/svg" xmlns:xlink="http://www.w3.org/1999/xlink" width="709.811" height="710" viewBox="0 0 709.811 710">
  <defs>
    <style>
      .cls-1 {
        fill: url(#linear-gradient);
      }
    </style>
    <linearGradient id="linear-gradient" x1="-0.366" y1="1.335" x2="1.065" y2="0.205" gradientUnits="objectBoundingBox">
      <stop offset="0" stop-color="#52a6a7"/>
      <stop offset="1" stop-color="#20375b"/>
    </linearGradient>
  </defs>
  <path id="Subtraction_10" data-name="Subtraction 10" class="cls-1" d="M355,710a360.688,360.688,0,0,1-36.3-1.833A354.47,354.47,0,0,1,1.833,391.3a360.321,360.321,0,0,1,0-72.593A354.469,354.469,0,0,1,318.7,1.833,360.69,360.69,0,0,1,355,0c11.868,0,23.84.592,35.582,1.761,11.575,1.152,23.208,2.892,34.578,5.171A352.974,352.974,0,0,1,550.078,58.358,356.216,356.216,0,0,1,678.79,209.241a353.325,353.325,0,0,1,31.021,134.072c-6.253-127.332-111.1-227.076-238.708-227.076-131.785,0-239,107.215-239,239s107.215,239,239,239c127.086,0,231.918-99.321,238.659-226.113A354.785,354.785,0,0,1,424.99,703.1c-11.343,2.268-22.95,4-34.5,5.145C378.781,709.411,366.839,710,355,710Z"/>
</svg>
