<svg xmlns="http://www.w3.org/2000/svg" xmlns:xlink="http://www.w3.org/1999/xlink" width="1900" height="800" viewBox="0 0 1920.089 1029.537">
  <defs>
    <style>
      .cls-1 {
        fill: url(#linear-gradient);
      }

      .cls-2 {
        fill: url(#linear-gradient-2);
      }
    </style>
    <linearGradient id="linear-gradient" x1="1" y1="0.439" x2="0" y2="0.437" gradientUnits="objectBoundingBox">
      <stop offset="0" stop-color="#1f3459"/>
      <stop offset="1" stop-color="#4fa9a9" stop-opacity="0.812"/>
    </linearGradient>
    <linearGradient id="linear-gradient-2" x1="-0.305" y1="0.565" x2="2.03" y2="0.557" gradientUnits="objectBoundingBox">
      <stop offset="0" stop-color="#4fa8a8"/>
      <stop offset="0.479" stop-color="#1f3459" stop-opacity="0.812"/>
      <stop offset="1" stop-color="#4fa9a9" stop-opacity="0.812"/>
    </linearGradient>
  </defs>
  <g id="Group_2" data-name="Group 2" transform="translate(-130 3.977)">
    <path id="Rectangle_2" data-name="Rectangle 2" class="cls-1" d="M0,0H1421a499,499,0,0,1,499,499v88.537a442,442,0,0,1-442,442H0a0,0,0,0,1,0,0V0A0,0,0,0,1,0,0Z" transform="translate(130 -3.977)"/>
    <path id="Intersection_4" data-name="Intersection 4" class="cls-2" d="M192.269,860.181A422.4,422.4,0,0,1-75.087,684.708c-7.99-11.644-15.493-23.849-22.3-36.276a431.772,431.772,0,0,1-33.779-79.888c-4.177-13.547-7.712-27.442-10.5-41.3a423.669,423.669,0,0,1-.511-164.645,427.7,427.7,0,0,1,60.5-150.313A420.807,420.807,0,0,1,68.751,71.819,428.2,428.2,0,0,1,148.33,37.91,422.148,422.148,0,0,1,620.837,202.323c7.99,11.644,15.493,23.849,22.3,36.276a431.939,431.939,0,0,1,18.9,39.088A427.144,427.144,0,0,1,691.2,381.43a423.738,423.738,0,0,1,2.433,104.234,285.529,285.529,0,0,0-21.684-135.574C610.626,205.063,443.206,137.159,298.74,198.718S86.632,428.348,147.954,573.374,376.7,786.3,521.163,724.744c88.483-37.7,151.612-116.959,168.873-212.009a427.326,427.326,0,0,1-82.745,190.559,421.078,421.078,0,0,1-169.227,130.89,428.486,428.486,0,0,1-40.642,14.938A418.859,418.859,0,0,1,273.6,868.032h-.523A421.371,421.371,0,0,1,192.269,860.181Z" transform="translate(1354.341 74.469)"/>
  </g>
</svg>
